<mxfile host="app.diagrams.net" modified="2021-06-23T11:37:01.846Z" agent="5.0 (Macintosh; Intel Mac OS X 10_14_6) AppleWebKit/537.36 (KHTML, like Gecko) Chrome/88.0.4324.152 Safari/537.36" etag="vjxmOx8XNWT7hkBtEooM" version="14.8.0" type="github">
  <diagram name="Page-1" id="e7e014a7-5840-1c2e-5031-d8a46d1fe8dd">
    <mxGraphModel dx="945" dy="523" grid="1" gridSize="10" guides="1" tooltips="1" connect="1" arrows="1" fold="1" page="1" pageScale="1" pageWidth="1169" pageHeight="826" background="none" math="0" shadow="0">
      <root>
        <mxCell id="0" />
        <mxCell id="1" parent="0" />
        <mxCell id="2" value="Farmer" style="swimlane;whiteSpace=wrap;" parent="1" vertex="1">
          <mxGeometry x="164.5" y="128" width="280" height="682" as="geometry" />
        </mxCell>
        <mxCell id="5" value="" style="ellipse;shape=startState;fillColor=#000000;" parent="2" vertex="1">
          <mxGeometry x="100" y="40" width="30" height="30" as="geometry" />
        </mxCell>
        <mxCell id="6" value="" style="edgeStyle=elbowEdgeStyle;elbow=horizontal;verticalAlign=bottom;endArrow=open;endSize=8;endFill=1;rounded=0" parent="2" source="5" edge="1">
          <mxGeometry x="100" y="40" as="geometry">
            <mxPoint x="115.5" y="110" as="targetPoint" />
          </mxGeometry>
        </mxCell>
        <mxCell id="9" value="" style="endArrow=open;endFill=1;rounded=0" parent="2" edge="1">
          <mxGeometry relative="1" as="geometry">
            <mxPoint x="115" y="160" as="sourcePoint" />
            <mxPoint x="115.5" y="232" as="targetPoint" />
          </mxGeometry>
        </mxCell>
        <mxCell id="11" value="" style="endArrow=open;endFill=1;rounded=0;exitX=0.5;exitY=1;exitDx=0;exitDy=0;" parent="2" source="gZDd7FdrEEhNVj7kVmi1-49" edge="1">
          <mxGeometry relative="1" as="geometry">
            <mxPoint x="114.5" y="302" as="sourcePoint" />
            <mxPoint x="114.5" y="357" as="targetPoint" />
            <Array as="points">
              <mxPoint x="115" y="357" />
            </Array>
          </mxGeometry>
        </mxCell>
        <mxCell id="gZDd7FdrEEhNVj7kVmi1-48" value="Harvest coffeee" style="rounded=1;whiteSpace=wrap;html=1;fillColor=#91FF91;" vertex="1" parent="2">
          <mxGeometry x="55" y="112" width="120" height="60" as="geometry" />
        </mxCell>
        <mxCell id="gZDd7FdrEEhNVj7kVmi1-49" value="Process coffee" style="rounded=1;whiteSpace=wrap;html=1;fillColor=#91FF91;" vertex="1" parent="2">
          <mxGeometry x="55" y="232" width="120" height="60" as="geometry" />
        </mxCell>
        <mxCell id="gZDd7FdrEEhNVj7kVmi1-50" value="Pack coffee" style="rounded=1;whiteSpace=wrap;html=1;fillColor=#91FF91;" vertex="1" parent="2">
          <mxGeometry x="55" y="362" width="120" height="60" as="geometry" />
        </mxCell>
        <mxCell id="gZDd7FdrEEhNVj7kVmi1-51" value="" style="endArrow=open;endFill=1;rounded=0;exitX=0.5;exitY=1;exitDx=0;exitDy=0;" edge="1" parent="2">
          <mxGeometry relative="1" as="geometry">
            <mxPoint x="115" y="422" as="sourcePoint" />
            <mxPoint x="114.5" y="487" as="targetPoint" />
            <Array as="points">
              <mxPoint x="115" y="487" />
            </Array>
          </mxGeometry>
        </mxCell>
        <mxCell id="gZDd7FdrEEhNVj7kVmi1-52" value="Put coffee up for sale" style="rounded=1;whiteSpace=wrap;html=1;fillColor=#91FF91;" vertex="1" parent="2">
          <mxGeometry x="55" y="492" width="120" height="60" as="geometry" />
        </mxCell>
        <mxCell id="3" value="Distributor" style="swimlane;whiteSpace=wrap;" parent="1" vertex="1">
          <mxGeometry x="444.5" y="128" width="280" height="682" as="geometry" />
        </mxCell>
        <mxCell id="13" value="" style="ellipse;shape=startState;fillColor=#000000;" parent="3" vertex="1">
          <mxGeometry x="105" y="42" width="30" height="30" as="geometry" />
        </mxCell>
        <mxCell id="gZDd7FdrEEhNVj7kVmi1-53" value="Buy coffee" style="rounded=1;whiteSpace=wrap;html=1;fillColor=#91FF91;" vertex="1" parent="3">
          <mxGeometry x="60" y="492" width="120" height="60" as="geometry" />
        </mxCell>
        <mxCell id="gZDd7FdrEEhNVj7kVmi1-54" value="" style="endArrow=open;endFill=1;rounded=0" edge="1" parent="3">
          <mxGeometry relative="1" as="geometry">
            <mxPoint x="119.5" y="72" as="sourcePoint" />
            <mxPoint x="120.5" y="492" as="targetPoint" />
          </mxGeometry>
        </mxCell>
        <mxCell id="gZDd7FdrEEhNVj7kVmi1-58" value="Ship coffee" style="rounded=1;whiteSpace=wrap;html=1;fillColor=#91FF91;" vertex="1" parent="3">
          <mxGeometry x="60" y="612" width="120" height="60" as="geometry" />
        </mxCell>
        <mxCell id="gZDd7FdrEEhNVj7kVmi1-59" value="" style="endArrow=open;endFill=1;rounded=0;exitX=0.5;exitY=1;exitDx=0;exitDy=0;" edge="1" parent="3">
          <mxGeometry relative="1" as="geometry">
            <mxPoint x="120" y="552" as="sourcePoint" />
            <mxPoint x="119.5" y="617" as="targetPoint" />
            <Array as="points">
              <mxPoint x="120" y="617" />
            </Array>
          </mxGeometry>
        </mxCell>
        <mxCell id="4" value="Retailer" style="swimlane;whiteSpace=wrap;" parent="1" vertex="1">
          <mxGeometry x="724.5" y="128" width="280" height="682" as="geometry" />
        </mxCell>
        <mxCell id="gZDd7FdrEEhNVj7kVmi1-63" value="Receive coffee" style="rounded=1;whiteSpace=wrap;html=1;fillColor=#91FF91;" vertex="1" parent="4">
          <mxGeometry x="85" y="612" width="120" height="60" as="geometry" />
        </mxCell>
        <mxCell id="gZDd7FdrEEhNVj7kVmi1-66" value="" style="ellipse;shape=startState;fillColor=#000000;" vertex="1" parent="4">
          <mxGeometry x="115.5" y="42" width="30" height="30" as="geometry" />
        </mxCell>
        <mxCell id="gZDd7FdrEEhNVj7kVmi1-70" value="" style="endArrow=open;endFill=1;rounded=0;entryX=0.438;entryY=-0.067;entryDx=0;entryDy=0;entryPerimeter=0;" edge="1" parent="4" target="gZDd7FdrEEhNVj7kVmi1-63">
          <mxGeometry relative="1" as="geometry">
            <mxPoint x="130" y="62" as="sourcePoint" />
            <mxPoint x="131" y="482" as="targetPoint" />
          </mxGeometry>
        </mxCell>
        <mxCell id="gZDd7FdrEEhNVj7kVmi1-42" value="Consumer" style="swimlane;whiteSpace=wrap;" vertex="1" parent="1">
          <mxGeometry x="1004.5" y="128" width="280" height="682" as="geometry" />
        </mxCell>
        <mxCell id="gZDd7FdrEEhNVj7kVmi1-64" value="Purchase coffee" style="rounded=1;whiteSpace=wrap;html=1;fillColor=#91FF91;" vertex="1" parent="gZDd7FdrEEhNVj7kVmi1-42">
          <mxGeometry x="80" y="612" width="120" height="60" as="geometry" />
        </mxCell>
        <mxCell id="gZDd7FdrEEhNVj7kVmi1-65" value="" style="ellipse;shape=startState;fillColor=#000000;" vertex="1" parent="gZDd7FdrEEhNVj7kVmi1-42">
          <mxGeometry x="125" y="42" width="30" height="30" as="geometry" />
        </mxCell>
        <mxCell id="gZDd7FdrEEhNVj7kVmi1-69" value="" style="endArrow=open;endFill=1;rounded=0;entryX=0.5;entryY=0;entryDx=0;entryDy=0;" edge="1" parent="gZDd7FdrEEhNVj7kVmi1-42" target="gZDd7FdrEEhNVj7kVmi1-64">
          <mxGeometry relative="1" as="geometry">
            <mxPoint x="139.5" y="72" as="sourcePoint" />
            <mxPoint x="140.5" y="492" as="targetPoint" />
          </mxGeometry>
        </mxCell>
        <mxCell id="gZDd7FdrEEhNVj7kVmi1-56" value="" style="edgeStyle=none;endArrow=open;endFill=1;rounded=0;entryX=0;entryY=0.5;entryDx=0;entryDy=0;" edge="1" parent="1" target="gZDd7FdrEEhNVj7kVmi1-53">
          <mxGeometry width="100" height="100" relative="1" as="geometry">
            <mxPoint x="340" y="650" as="sourcePoint" />
            <mxPoint x="460" y="650.3428571428572" as="targetPoint" />
          </mxGeometry>
        </mxCell>
        <mxCell id="gZDd7FdrEEhNVj7kVmi1-67" style="edgeStyle=orthogonalEdgeStyle;rounded=0;orthogonalLoop=1;jettySize=auto;html=1;exitX=1;exitY=0.5;exitDx=0;exitDy=0;entryX=0;entryY=0.5;entryDx=0;entryDy=0;" edge="1" parent="1" source="gZDd7FdrEEhNVj7kVmi1-58" target="gZDd7FdrEEhNVj7kVmi1-63">
          <mxGeometry relative="1" as="geometry" />
        </mxCell>
        <mxCell id="gZDd7FdrEEhNVj7kVmi1-68" style="edgeStyle=orthogonalEdgeStyle;rounded=0;orthogonalLoop=1;jettySize=auto;html=1;exitX=1;exitY=0.5;exitDx=0;exitDy=0;entryX=0;entryY=0.5;entryDx=0;entryDy=0;" edge="1" parent="1" source="gZDd7FdrEEhNVj7kVmi1-63" target="gZDd7FdrEEhNVj7kVmi1-64">
          <mxGeometry relative="1" as="geometry" />
        </mxCell>
      </root>
    </mxGraphModel>
  </diagram>
</mxfile>
